<?xml version="1.0" standalone="no"?>
<!DOCTYPE svg PUBLIC "-//W3C//DTD SVG 20010904//EN"
 "http://www.w3.org/TR/2001/REC-SVG-20010904/DTD/svg10.dtd">
<svg version="1.0" xmlns="http://www.w3.org/2000/svg"
 width="2038.000000pt" height="1358.000000pt" viewBox="0 0 2038.000000 1358.000000"
 preserveAspectRatio="xMidYMid meet">
<metadata>
Created by potrace 1.16, written by Peter Selinger 2001-2019
</metadata>
<g transform="translate(0.000000,1358.000000) scale(0.100000,-0.100000)"
fill="#000000" stroke="none">
<path d="M0 6790 l0 -6790 10190 0 10190 0 0 6790 0 6790 -10190 0 -10190 0 0
-6790z m10529 4386 c-103 -27 -185 -138 -250 -336 -16 -47 -28 -77 -29 -68 0
9 4 27 9 40 4 13 11 37 15 53 11 49 -12 8 -30 -54 -11 -37 -19 -49 -25 -40 -6
11 -9 10 -15 -4 -3 -9 -10 -15 -14 -12 -17 11 -28 -16 -59 -140 l-10 -40 4 43
c12 116 70 301 124 396 76 131 141 176 256 175 l70 0 -46 -13z m1683 -323 l42
-17 -58 -13 c-82 -18 -165 -72 -276 -177 -52 -50 -81 -75 -64 -56 16 19 37 44
45 54 13 18 13 19 -9 5 -21 -12 -25 -12 -37 4 -19 26 -40 12 -106 -65 -70 -83
-87 -101 -58 -58 65 96 218 241 306 291 91 52 144 60 215 32z m-3399 -98 c-50
-40 -68 -102 -67 -225 1 -58 9 -138 18 -179 19 -92 14 -106 -8 -19 l-16 63 6
-55 c3 -30 19 -107 36 -170 16 -63 30 -124 31 -135 2 -11 8 -30 15 -42 9 -17
9 -23 1 -23 -7 0 -8 -7 -4 -17 4 -10 8 -25 9 -35 3 -21 25 -48 40 -48 6 0 37
-53 68 -118 65 -132 102 -200 119 -216 6 -6 -19 49 -56 122 -37 74 -65 136
-62 138 2 2 30 -49 61 -113 107 -220 274 -479 431 -670 44 -55 19 -37 -48 34
-64 66 -65 66 -96 54 -36 -15 -33 -17 -125 104 -116 153 -342 575 -332 618 3
12 3 16 0 8 -12 -27 -102 215 -150 402 -42 165 -47 347 -13 430 14 32 129 114
164 116 6 1 -4 -10 -22 -24z m1434 -27 c-3 -8 -6 -5 -6 6 -1 11 2 17 5 13 3
-3 4 -12 1 -19z m-10 -50 c-3 -7 -5 -2 -5 12 0 14 2 19 5 13 2 -7 2 -19 0 -25z
m-10 -50 c-3 -7 -5 -2 -5 12 0 14 2 19 5 13 2 -7 2 -19 0 -25z m-10 -50 c-3
-8 -6 -5 -6 6 -1 11 2 17 5 13 3 -3 4 -12 1 -19z m-100 -60 c-2 -13 -4 -5 -4
17 -1 22 1 32 4 23 2 -10 2 -28 0 -40z m1713 28 c0 -2 -8 -10 -17 -17 -16 -13
-17 -12 -4 4 13 16 21 21 21 13z m-1623 -48 c-3 -8 -6 -5 -6 6 -1 11 2 17 5
13 3 -3 4 -12 1 -19z m1443 -38 c-12 -16 -24 -30 -26 -30 -3 0 4 14 16 30 12
17 24 30 26 30 3 0 -4 -13 -16 -30z m-1543 -12 c-3 -8 -6 -5 -6 6 -1 11 2 17
5 13 3 -3 4 -12 1 -19z m1483 -78 c-6 -11 -13 -20 -16 -20 -2 0 0 9 6 20 6 11
13 20 16 20 2 0 0 -9 -6 -20z m-41 -67 c-12 -21 -27 -42 -32 -48 -11 -11 9 29
31 63 24 37 25 25 1 -15z m-1420 -163 c25 0 29 -4 35 -37 3 -21 7 -60 8 -88 1
-37 3 -27 8 35 l6 85 2 -90 c4 -167 42 -436 87 -604 15 -60 10 -59 -20 2 -16
35 -25 42 -49 42 -38 1 -49 24 -74 165 -39 210 -50 361 -42 575 l4 110 3 -97
4 -98 28 0z m-1342 88 c-3 -7 -5 -2 -5 12 0 14 2 19 5 13 2 -7 2 -19 0 -25z
m2657 -122 c-30 -63 -54 -120 -54 -126 0 -6 -7 -24 -15 -41 -15 -28 -15 -30
14 -58 16 -16 33 -26 37 -23 4 4 4 0 1 -8 -34 -90 -111 -339 -133 -428 -23
-93 -30 -111 -40 -98 -6 9 -18 16 -25 16 -8 0 -20 9 -26 19 -23 37 42 294 134
526 51 130 148 335 157 335 3 0 -20 -51 -50 -114z m-1 -221 c-3 -9 -8 -14 -10
-11 -3 3 -2 9 2 15 9 16 15 13 8 -4z m-2503 -70 c0 -5 -5 -3 -10 5 -5 8 -10
20 -10 25 0 6 5 3 10 -5 5 -8 10 -19 10 -25z m4673 -14 l29 -28 -64 -6 c-35
-3 -81 -13 -103 -22 -22 -8 -29 -13 -15 -10 132 29 180 27 237 -7 80 -48 54
-204 -64 -400 -314 -520 -1119 -1138 -1481 -1138 -80 0 -117 16 -170 75 -54
59 -65 88 -57 149 8 67 12 70 39 39 12 -14 27 -23 33 -20 6 4 36 53 68 109 86
154 210 312 389 497 99 101 134 142 92 106 -80 -70 -263 -266 -356 -383 -36
-45 -70 -81 -76 -82 -6 0 -18 8 -28 18 -15 17 -15 22 -2 54 8 19 41 70 74 114
165 222 477 518 712 675 84 56 65 40 -56 -49 -180 -132 -419 -357 -408 -385 2
-7 14 -18 25 -25 18 -12 28 -6 106 65 48 43 83 72 79 66 -13 -23 10 -13 37 15
15 16 24 32 20 37 -5 4 -3 5 4 1 6 -3 24 6 40 20 15 15 19 20 8 13 -18 -13
-19 -13 -6 4 8 9 16 15 19 13 7 -8 47 23 47 36 0 6 9 12 20 14 11 2 31 16 44
31 13 15 27 28 30 27 14 -2 160 104 153 111 -4 4 -2 6 3 2 14 -7 118 57 108
67 -4 4 -1 5 7 2 8 -4 33 5 55 19 22 13 36 25 32 25 -4 0 -20 -7 -35 -16 l-27
-16 25 21 c14 12 33 19 43 17 9 -2 15 0 12 4 -3 5 3 14 14 20 18 9 19 14 9 35
-14 32 -38 32 -105 0 -29 -13 -53 -22 -53 -19 0 8 176 89 235 109 126 42 213
41 258 -4z m-503 -115 c0 -2 -7 -7 -16 -10 -8 -3 -12 -2 -9 4 6 10 25 14 25 6z
m-40 -21 c0 -2 -10 -9 -22 -15 -22 -11 -22 -10 -4 4 21 17 26 19 26 11z
m-5668 -33 c-5 -34 47 -136 114 -224 107 -139 382 -403 654 -628 145 -120 436
-322 598 -414 45 -26 82 -49 82 -51 0 -4 -96 37 -140 60 -25 13 -28 12 -40
-10 -7 -14 -20 -25 -28 -25 -51 0 -522 325 -514 354 2 6 1 8 -3 4 -7 -7 -46
20 -146 101 -247 199 -547 514 -613 645 -31 62 -33 97 -6 121 11 10 20 30 20
45 0 14 5 31 12 38 16 16 15 16 10 -16z m5603 -8 c-26 -20 -55 -36 -55 -30 0
5 63 46 70 46 3 -1 -4 -8 -15 -16z m-7799 -100 c-4 -42 -7 -155 -7 -252 1
-585 204 -1094 578 -1453 221 -213 519 -367 817 -424 43 -8 80 -16 82 -18 2
-2 -2 -11 -9 -20 -11 -14 -20 -14 -88 -2 -250 44 -522 162 -709 308 -452 350
-700 904 -700 1562 0 203 17 375 37 375 3 0 3 -34 -1 -76z m10048 -221 c-10
-40 -14 -41 -14 -5 0 18 5 32 10 32 6 0 8 -11 4 -27z m74 -243 c13 -26 27 -38
57 -47 l40 -11 -33 -1 c-72 -2 -90 32 -97 189 l-4 95 10 -95 c6 -52 18 -111
27 -130z m-81 163 c-3 -10 -5 -4 -5 12 0 17 2 24 5 18 2 -7 2 -21 0 -30z m-3
-118 c-9 -57 -29 -85 -62 -85 l-27 1 24 13 c32 18 50 53 51 101 0 30 3 36 10
25 6 -8 7 -33 4 -55z m-4845 -13 c11 -21 95 -104 131 -129 13 -9 45 -23 70
-29 25 -7 35 -13 24 -13 -12 -1 -41 6 -64 14 -23 8 -58 15 -76 15 -23 0 -44
10 -70 33 -39 33 -94 103 -94 119 0 17 69 8 79 -10z m4751 -72 c0 -6 -30 -9
-72 -8 l-73 2 70 6 c39 4 71 7 73 8 1 1 2 -2 2 -8z m403 -30 c5 -4 1 -10 -8
-14 -9 -3 -13 -2 -10 4 4 6 -12 10 -40 10 -25 0 -44 4 -41 9 7 10 86 3 99 -9z
m-4339 -1 c17 -8 40 -41 71 -104 33 -67 56 -99 83 -119 20 -14 32 -26 27 -26
-6 0 -33 16 -60 36 -28 20 -60 40 -72 45 -27 10 -61 73 -72 134 -5 25 -7 45
-5 45 2 0 14 -5 28 -11z m4383 -5 c-3 -3 -12 -4 -19 -1 -8 3 -5 6 6 6 11 1 17
-2 13 -5z m-383 -37 c22 -22 24 -32 24 -128 0 -79 -2 -94 -8 -64 -4 22 -6 52
-3 67 3 15 2 48 -2 73 -5 40 -11 49 -38 60 -20 9 -25 14 -14 15 10 0 28 -10
41 -23z m155 7 c-26 -8 -50 -22 -54 -31 -4 -10 -13 -63 -20 -118 -10 -76 -13
-88 -14 -50 -1 72 16 165 35 186 16 18 39 26 79 27 11 0 -1 -6 -26 -14z m-366
-117 c-7 -39 -20 -57 -41 -57 -13 0 -13 2 1 18 9 10 20 33 23 50 4 17 10 29
15 26 5 -2 6 -19 2 -37z m-5341 -49 c52 -27 75 -33 129 -33 37 0 62 -3 55 -7
-6 -4 -20 -8 -31 -8 -11 0 -39 -9 -63 -20 -43 -19 -43 -19 -98 1 -30 12 -67
32 -82 45 -26 23 -27 24 -8 39 26 20 26 20 98 -17z m5435 -18 c13 0 23 -4 23
-10 0 -5 -12 -10 -28 -10 -15 0 -37 -7 -50 -15 -18 -13 -21 -14 -16 -1 3 8 15
17 27 21 l22 6 -22 9 c-13 5 -23 14 -23 20 0 7 9 5 22 -4 12 -9 33 -16 45 -16z
m-200 -6 c-3 -3 -12 -4 -19 -1 -8 3 -5 6 6 6 11 1 17 -2 13 -5z m91 -38 c3
-11 0 -16 -7 -11 -6 3 -9 10 -6 15 3 5 -3 11 -12 14 -14 4 -14 4 2 3 11 -1 21
-11 23 -21z m4 -80 c-9 -18 -11 -16 -11 19 0 33 1 37 10 21 8 -12 8 -25 1 -40z
m245 32 c-3 -8 -6 -5 -6 6 -1 11 2 17 5 13 3 -3 4 -12 1 -19z m40 0 c-3 -8 -6
-5 -6 6 -1 11 2 17 5 13 3 -3 4 -12 1 -19z m-838 -415 c11 -10 22 -29 23 -43
3 -24 0 -25 -62 -31 l-65 -6 65 -2 c124 -3 179 -27 165 -71 -10 -30 -68 -93
-124 -134 -76 -55 -242 -139 -274 -138 -21 1 -27 -3 -23 -14 5 -12 -1 -14 -28
-9 -39 8 -96 -10 -203 -62 -49 -23 -73 -40 -69 -48 3 -9 -19 -22 -72 -40 -42
-15 -88 -32 -102 -37 -87 -37 -202 -66 -235 -61 -19 3 -35 9 -35 13 0 7 10 10
88 26 23 4 32 12 32 26 0 11 8 22 20 25 26 7 26 30 -2 39 -19 6 -20 7 -4 16
16 9 16 11 1 22 -15 11 -15 13 4 30 12 11 21 25 21 32 0 18 -43 28 -78 19 -41
-11 -171 -21 -188 -15 -9 3 -16 10 -17 15 -1 6 -25 9 -53 8 -44 -3 -52 0 -57
17 -4 15 0 20 14 20 10 0 19 7 19 15 0 19 -13 19 -52 -1 -16 -9 -27 -11 -24
-6 3 6 39 22 79 37 39 14 83 31 97 37 14 6 30 12 36 14 28 5 59 17 64 24 3 5
19 10 35 14 17 3 50 12 75 21 25 10 56 19 70 21 14 3 34 8 45 13 40 18 88 31
96 25 5 -3 15 -2 22 3 6 4 17 8 22 8 39 4 95 19 95 25 0 5 9 6 20 3 12 -3 20
0 20 7 0 7 8 9 20 5 11 -3 20 -2 20 3 0 5 14 12 32 16 100 20 109 25 106 59
l-3 32 -60 -2 c-58 -1 -59 -1 -20 8 76 18 240 37 331 38 74 1 96 -2 113 -16z
m-5269 -28 c0 -3 -16 -23 -36 -45 -30 -33 -43 -40 -74 -40 -20 0 -51 5 -68 11
l-32 11 21 29 c11 16 25 27 30 23 16 -9 117 -6 136 5 21 12 23 13 23 6z m4767
-11 c-3 -3 -12 -4 -19 -1 -8 3 -5 6 6 6 11 1 17 -2 13 -5z m-50 -10 c-3 -3
-12 -4 -19 -1 -8 3 -5 6 6 6 11 1 17 -2 13 -5z m-40 -10 c-3 -3 -12 -4 -19 -1
-8 3 -5 6 6 6 11 1 17 -2 13 -5z m-50 -10 c-3 -3 -12 -4 -19 -1 -8 3 -5 6 6 6
11 1 17 -2 13 -5z m-150 -40 c-3 -3 -12 -4 -19 -1 -8 3 -5 6 6 6 11 1 17 -2
13 -5z m-40 -10 c-3 -3 -12 -4 -19 -1 -8 3 -5 6 6 6 11 1 17 -2 13 -5z m-5028
-90 c-121 -127 -460 -382 -492 -371 -7 2 10 17 37 33 96 58 293 204 386 287
102 92 125 109 69 51z m4816 26 c-27 -12 -43 -12 -25 0 8 5 22 9 30 9 10 0 8
-3 -5 -9z m-65 -20 c-8 -5 -19 -10 -25 -10 -5 0 -3 5 5 10 8 5 20 10 25 10 6
0 3 -5 -5 -10z m-6490 -106 c151 -52 260 -91 243 -88 -52 9 -39 -2 32 -27 48
-17 65 -27 65 -41 0 -10 -7 -21 -15 -24 -12 -5 -13 -10 -4 -20 6 -8 8 -14 3
-14 -29 0 -460 143 -530 176 l-55 26 6 38 c5 32 3 40 -17 54 -12 9 -18 16 -13
16 6 -1 134 -43 285 -96z m6420 82 c0 -3 -17 -10 -37 -16 -77 -25 -185 -73
-176 -79 5 -3 10 -17 10 -30 2 -31 6 -33 38 -21 53 20 36 3 -20 -20 -30 -12
-52 -27 -49 -32 9 -15 -28 -37 -61 -37 l-30 0 40 20 c98 47 -27 -1 -188 -72
-172 -76 -198 -86 -184 -73 3 4 0 19 -9 35 -14 28 -14 29 25 53 106 67 304
157 521 237 106 38 120 42 120 35z m-6065 -196 c13 -5 14 -9 5 -9 -8 0 -24 4
-35 9 -13 5 -14 9 -5 9 8 0 24 -4 35 -9z m5745 -45 c0 -3 -9 -14 -20 -25 -12
-12 -20 -33 -20 -55 0 -30 -3 -35 -24 -35 -30 0 -42 -15 -20 -24 27 -10 44 -7
44 9 0 18 19 19 43 1 17 -13 29 -13 165 -1 40 4 90 4 111 0 39 -6 39 -7 29
-36 -5 -16 -14 -29 -20 -29 -6 0 -8 -7 -4 -15 4 -12 -3 -15 -35 -15 -24 0 -38
-4 -34 -10 3 -5 23 -10 43 -10 20 0 44 -5 52 -10 12 -7 7 -12 -23 -25 -20 -8
-37 -19 -37 -24 0 -5 -24 -14 -52 -20 -355 -73 -361 -74 -508 -75 -123 -1
-150 2 -179 17 -18 10 -36 27 -38 38 -3 10 -9 16 -14 13 -12 -7 -29 39 -29 76
0 16 11 41 24 56 l24 28 7 -32 c3 -17 10 -34 14 -36 4 -3 40 16 81 41 82 50
388 202 408 203 6 0 12 -2 12 -5z m-5563 -11 c-3 -3 -12 -4 -19 -1 -8 3 -5 6
6 6 11 1 17 -2 13 -5z m3368 -66 c17 -9 69 -28 118 -44 48 -15 87 -31 87 -35
0 -8 -101 -291 -145 -406 -13 -35 -20 -63 -16 -63 4 0 82 38 173 85 l165 84
49 -12 c49 -12 49 -12 102 -112 28 -55 52 -101 52 -102 0 -2 -29 -3 -65 -3
-63 0 -72 -4 -287 -112 -185 -94 -217 -113 -197 -119 20 -5 76 19 253 107 209
105 266 127 266 106 0 -4 -99 -57 -220 -117 -121 -60 -220 -113 -220 -118 0
-4 -11 -5 -25 -1 -14 3 -25 2 -25 -3 0 -4 52 -30 115 -57 71 -29 113 -52 109
-58 -4 -7 -2 -8 5 -4 16 10 102 -24 94 -37 -3 -5 -1 -7 5 -3 5 3 44 -7 85 -24
42 -16 80 -30 86 -30 21 0 20 -20 -4 -86 -51 -138 -39 -125 -114 -123 -36 1
-70 5 -76 9 -23 16 -349 151 -359 148 -8 -2 23 -92 84 -243 52 -132 99 -246
103 -252 15 -24 -5 -34 -61 -32 -45 2 -70 -3 -119 -26 -34 -16 -60 -32 -57
-36 3 -5 41 5 86 22 45 16 96 29 112 27 27 -3 21 -8 -56 -42 -74 -33 -93 -38
-131 -32 -24 4 -51 12 -60 19 -8 7 -45 93 -82 192 -37 99 -70 184 -73 189 -5
8 -28 -52 -126 -327 l-28 -78 -67 2 c-37 1 -83 9 -106 19 -22 10 -59 26 -82
35 -23 10 -44 24 -47 32 -3 8 7 49 23 91 16 42 50 136 76 207 25 72 50 140 55
153 6 14 6 22 -1 22 -6 0 -85 -39 -176 -86 -159 -82 -168 -85 -214 -79 -26 4
-54 12 -62 18 -21 17 -70 145 -71 186 l-1 33 225 116 c160 81 226 120 228 134
2 10 0 17 -5 16 -4 -1 -30 9 -58 22 -27 13 -52 24 -55 25 -3 0 -12 5 -20 10
-8 5 -24 11 -35 12 -10 2 -30 10 -42 18 -13 9 -23 13 -23 10 0 -4 -7 1 -16 9
-8 9 -20 14 -25 11 -5 -4 -9 -2 -9 4 0 6 -6 8 -14 5 -7 -3 -21 2 -30 11 -9 9
-16 13 -16 9 0 -4 -9 1 -19 10 -11 10 -24 15 -30 12 -5 -3 -11 -1 -13 4 -2 6
-12 12 -23 14 -11 2 -22 11 -23 20 -5 25 58 204 74 210 18 7 96 -28 86 -39 -4
-5 -2 -5 5 -1 7 3 58 -13 115 -37 205 -88 258 -109 267 -105 6 1 -3 39 -18 83
-44 127 -110 304 -137 373 -14 35 -23 70 -20 78 8 21 172 93 201 88 66 -12 70
-18 115 -141 84 -231 107 -288 116 -287 5 1 42 91 81 200 96 264 86 245 125
241 18 -2 47 -11 63 -19z m-3168 6 c-3 -3 -12 -4 -19 -1 -8 3 -5 6 6 6 11 1
17 -2 13 -5z m140 -40 c-3 -3 -12 -4 -19 -1 -8 3 -5 6 6 6 11 1 17 -2 13 -5z
m273 -73 c491 -133 478 -130 433 -130 -34 -1 -43 -5 -43 -18 -1 -44 -11 -46
-126 -23 -143 29 -164 34 -259 60 -44 12 -98 26 -120 31 -22 6 -58 17 -80 24
l-40 15 50 -3 c49 -2 50 -1 50 26 -1 27 1 28 40 22 22 -3 -5 9 -60 26 -55 17
-102 33 -105 36 -6 7 -21 11 260 -66z m5435 -61 c-27 -12 -43 -12 -25 0 8 5
22 9 30 9 10 0 8 -3 -5 -9z m-5615 -18 c0 -9 -19 -17 -173 -73 -101 -36 -188
-57 -172 -41 4 4 10 7 13 8 4 0 14 3 22 7 8 3 61 22 117 42 57 20 118 42 135
50 37 16 58 19 58 7z m5475 -21 c-11 -5 -36 -11 -55 -14 -35 -6 -34 -6 5 8 43
14 84 19 50 6z m-4584 -134 c-9 -22 -17 -27 -46 -27 -32 0 -35 2 -25 19 5 11
10 29 10 40 0 15 8 20 33 23 37 3 44 -12 28 -55z m1499 -247 c8 -5 11 -10 5
-10 -5 0 -17 5 -25 10 -8 5 -10 10 -5 10 6 0 17 -5 25 -10z m2890 -525 c85 -7
140 -13 123 -14 -32 -1 -33 -3 -33 -41 0 -37 2 -40 28 -41 15 0 36 -4 47 -9
14 -7 5 -8 -30 -5 -27 2 -97 7 -155 10 -226 11 -312 18 -367 29 -56 11 -58 12
-61 46 -2 19 -9 38 -15 43 -14 9 245 -1 463 -18z m-598 -28 c-3 -39 -5 -38 93
-51 17 -2 -6 -3 -50 -2 l-80 1 -3 33 c-4 35 13 65 32 59 6 -2 10 -20 8 -40z
m861 6 c-18 -2 -48 -2 -65 0 -18 2 -4 4 32 4 36 0 50 -2 33 -4z m145 -10 c-15
-2 -42 -2 -60 0 -18 2 -6 4 27 4 33 0 48 -2 33 -4z m-5178 -12 l65 -6 3 -36
c3 -35 2 -36 -35 -42 -21 -4 -86 -7 -145 -7 -59 0 -109 -4 -112 -8 -3 -5 -36
-8 -73 -7 -37 1 -86 -2 -109 -6 -22 -5 -54 -5 -70 0 -25 7 -20 9 37 15 l67 7
-2 37 -1 37 -105 -2 c-136 -2 -94 5 90 16 177 10 304 11 390 2z m5313 2 c-18
-2 -48 -2 -65 0 -18 2 -4 4 32 4 36 0 50 -2 33 -4z m110 -10 c-13 -2 -33 -2
-45 0 -13 2 -3 4 22 4 25 0 35 -2 23 -4z m105 -10 c-10 -2 -28 -2 -40 0 -13 2
-5 4 17 4 22 1 32 -1 23 -4z m105 -10 c-7 -2 -21 -2 -30 0 -10 3 -4 5 12 5 17
0 24 -2 18 -5z m80 -10 c-7 -2 -19 -2 -25 0 -7 3 -2 5 12 5 14 0 19 -2 13 -5z
m-5430 -65 c6 -39 0 -53 -17 -39 -6 5 -31 13 -56 19 l-45 10 49 1 48 1 -7 38
c-6 32 -5 35 8 22 8 -8 17 -31 20 -52z m5632 47 c198 -23 347 -45 365 -55 13
-8 13 -9 -2 -10 -12 0 -19 -12 -24 -36 l-7 -36 -71 7 c-39 4 -91 9 -116 11
-42 4 -184 18 -289 29 -46 5 -69 15 -35 15 27 0 44 19 44 47 0 17 6 23 23 24
15 1 10 4 -13 9 -60 13 -10 11 125 -5z m-657 -42 c-10 -2 -26 -2 -35 0 -10 3
-2 5 17 5 19 0 27 -2 18 -5z m66 -2 c3 -4 -6 -6 -19 -3 -14 2 -25 6 -25 8 0 8
39 4 44 -5z m-6611 -9 c-8 -5 -9 -21 -4 -49 l8 -42 -46 -6 c-60 -8 -152 -26
-171 -33 -21 -8 -20 -7 -82 -16 -32 -4 -60 -12 -64 -17 -3 -5 -14 -7 -25 -4
-10 4 -19 3 -19 -2 0 -4 -15 -8 -32 -9 -18 0 -52 -4 -74 -8 -39 -8 -42 -6 -48
17 -3 14 -9 32 -12 40 -4 12 9 20 58 35 169 52 557 124 511 94z m1410 1 c-7
-2 -21 -2 -30 0 -10 3 -4 5 12 5 17 0 24 -2 18 -5z m5285 0 c-10 -2 -26 -2
-35 0 -10 3 -2 5 17 5 19 0 27 -2 18 -5z m-5945 -10 c-13 -2 -33 -2 -45 0 -13
2 -3 4 22 4 25 0 35 -2 23 -4z m6065 0 c-16 -2 -40 -2 -55 0 -16 2 -3 4 27 4
30 0 43 -2 28 -4z m-6175 -10 c-7 -2 -21 -2 -30 0 -10 3 -4 5 12 5 17 0 24 -2
18 -5z m6280 0 c-7 -2 -19 -2 -25 0 -7 3 -2 5 12 5 14 0 19 -2 13 -5z m778
-65 c-7 -46 -12 -48 -76 -28 -25 8 -21 8 18 4 l47 -6 0 36 c0 20 4 36 8 36 5
0 6 -19 3 -42z m-507 -44 c30 -11 16 -24 -26 -25 -55 0 -151 -21 -169 -35 -8
-6 -39 -21 -69 -32 -30 -11 -73 -30 -95 -42 -22 -11 -159 -59 -305 -107 -146
-47 -278 -92 -294 -100 -48 -25 -18 5 37 37 49 28 61 43 15 19 -11 -6 -34 -15
-49 -19 -24 -7 -29 -6 -29 9 0 37 290 172 496 232 175 51 433 84 488 63z
m-7875 -61 c-1 -5 -1 -21 0 -36 1 -23 5 -27 21 -23 58 17 65 17 35 0 -16 -9
-37 -23 -47 -31 -19 -17 -25 -9 -28 37 -3 50 -1 60 10 60 6 0 9 -3 9 -7z m178
-19 c-3 -3 -12 -4 -19 -1 -8 3 -5 6 6 6 11 1 17 -2 13 -5z m-2025 -294 c22 10
21 10 -2 -9 -14 -12 -37 -33 -52 -48 -16 -16 -28 -23 -28 -17 0 5 5 15 12 22
9 9 4 23 -20 62 -18 28 -32 54 -32 57 0 2 22 -14 50 -37 43 -36 52 -40 72 -30z
m55 -8 c-30 -31 -35 -68 -12 -98 8 -10 15 -23 15 -29 0 -5 -11 6 -23 25 -13
19 -24 44 -24 55 0 20 56 89 66 80 2 -3 -8 -18 -22 -33z m-205 -270 c56 -62
84 -60 191 10 69 47 76 43 10 -4 -102 -72 -121 -81 -151 -69 -15 6 -72 61
-126 121 -54 60 -102 108 -106 105 -8 -5 -50 55 -50 71 1 8 128 -121 232 -234z
m159 171 l24 -28 -28 25 -28 25 -41 -23 c-50 -27 -61 -23 -16 7 44 27 60 26
89 -6z m-237 -147 c45 -64 76 -119 76 -133 0 -33 -28 -71 -87 -118 l-48 -39
51 55 c82 88 81 96 -21 245 -68 97 -93 143 -62 114 8 -8 50 -64 91 -124z m336
-19 c-41 -41 -79 -73 -85 -73 -5 1 -9 -5 -7 -11 1 -7 -3 -13 -9 -13 -5 0 -7
-4 -4 -10 3 -5 2 -10 -3 -10 -17 0 4 -73 30 -105 40 -49 168 -226 160 -221
-21 13 -203 260 -209 284 -9 38 16 75 107 156 47 42 87 75 90 75 3 0 -29 -32
-70 -72z m7566 -19 c-19 -27 -21 -19 -4 18 7 14 14 21 16 15 2 -6 -4 -21 -12
-33z m-3489 -9 c14 -35 26 -29 -125 -65 -62 -14 -111 -28 -109 -31 3 -2 31 3
63 11 156 39 322 39 352 -1 18 -25 6 -85 -31 -158 -37 -72 -221 -260 -342
-351 -324 -244 -754 -476 -1092 -589 -313 -106 -492 -99 -551 19 -23 45 -29
101 -12 111 5 3 16 -8 25 -25 8 -16 17 -30 19 -30 1 0 18 21 36 48 86 121 296
307 508 451 50 34 92 68 92 73 0 6 3 9 6 5 10 -9 66 22 59 33 -3 6 1 7 9 4 9
-3 18 0 21 8 3 8 11 15 18 15 13 0 98 52 108 66 3 5 8 8 10 6 11 -6 48 14 43
23 -4 6 -3 8 3 5 5 -3 65 23 134 58 68 36 154 77 191 91 37 15 65 30 63 34 -2
4 7 12 21 19 31 14 44 14 24 0 -11 -8 -9 -9 10 -3 14 4 34 17 46 29 11 12 27
24 35 27 11 4 12 9 2 31 -15 33 -30 34 -117 2 -38 -14 -71 -23 -73 -21 -5 4
134 56 233 85 104 32 193 49 254 50 53 1 56 0 67 -30z m3765 -153 c16 -10 34
-16 42 -13 7 3 26 -3 42 -14 16 -11 69 -46 118 -78 88 -57 104 -78 86 -110
-26 -45 -24 -45 -131 16 -57 32 -117 71 -133 86 -19 18 -38 26 -56 24 -20 -1
-46 13 -98 53 -39 30 -74 61 -77 68 -3 7 1 25 9 40 13 24 12 30 -6 61 -19 30
-10 25 78 -41 54 -41 111 -83 126 -92z m-4352 29 c-14 -8 -29 -14 -35 -14 -5
0 1 6 15 14 14 8 30 14 35 14 6 0 -1 -6 -15 -14z m-3558 -162 c66 -65 125
-127 131 -138 5 -11 -32 23 -84 75 -162 163 -199 186 -241 151 -9 -8 -25 -16
-35 -17 -14 -2 -11 3 10 22 18 16 40 24 63 24 32 0 48 -12 156 -117z m3398 93
c0 -2 -7 -7 -16 -10 -8 -3 -12 -2 -9 4 6 10 25 14 25 6z m-3666 -47 c-10 -12
-39 -35 -64 -52 -52 -35 -35 -14 30 37 52 41 61 44 34 15z m3506 -34 c0 -2
-13 -11 -30 -20 -38 -19 -40 -11 -2 9 31 17 32 18 32 11z m-90 -49 c0 -2 -21
-16 -47 -32 -116 -67 -233 -147 -233 -160 0 -8 11 -26 24 -39 l24 -24 -62 -42
c-101 -71 -214 -158 -305 -236 -47 -40 -90 -73 -96 -73 -20 0 -33 55 -20 81
39 73 360 319 627 479 86 51 88 53 88 46z m4692 -23 c10 -9 18 -20 18 -26 0
-5 -24 -37 -53 -70 -161 -187 -444 -631 -507 -795 -17 -43 -16 -44 10 -96 l28
-53 -29 -10 c-26 -10 -31 -8 -48 15 l-19 26 -19 -40 c-11 -21 -32 -72 -47
-111 -27 -71 -29 -73 -62 -73 -19 0 -34 2 -34 4 0 11 61 167 89 229 l32 68
-25 32 c-38 50 -143 274 -160 343 -23 89 -21 118 9 140 14 10 31 37 37 59 l12
40 7 -76 c10 -101 94 -317 153 -394 l15 -20 15 20 c8 11 38 63 67 115 68 124
219 354 316 483 81 107 164 207 172 207 2 0 13 -7 23 -17z m-4877 -203 c-3 -5
-12 -10 -18 -10 -7 0 -6 4 3 10 19 12 23 12 15 0z m1737 -120 c12 -11 20 -21
17 -23 -2 -2 -47 -24 -100 -50 -90 -43 -221 -131 -299 -201 -23 -20 -19 -14
11 19 l47 50 -25 23 -24 24 -57 -43 c-31 -24 -100 -83 -152 -133 l-95 -89 105
104 c167 166 329 278 460 320 72 23 86 23 112 -1z m4453 -120 c171 -70 229
-99 198 -100 -32 0 -53 -10 -53 -25 0 -8 -4 -16 -9 -19 -25 -16 -423 149 -427
177 -1 9 9 25 22 38 13 12 21 26 18 30 -2 5 21 -3 53 -18 32 -14 121 -51 198
-83z m-4296 58 c29 -9 44 -21 55 -45 87 -183 -65 -625 -357 -1037 -373 -527
-798 -841 -1014 -751 -51 21 -101 61 -124 99 -20 32 -26 96 -10 96 9 0 36 -30
56 -64 7 -13 11 0 13 51 4 93 17 161 53 273 33 103 147 343 210 440 21 33 39
63 39 65 0 3 14 24 30 47 32 43 39 64 18 52 -7 -4 -10 -4 -6 0 3 4 8 6 11 4 6
-5 37 23 37 34 0 6 -8 4 -17 -3 -16 -13 -17 -12 -4 3 7 10 17 16 21 13 5 -3
32 28 61 67 29 40 55 75 58 78 3 3 38 43 78 90 39 47 111 124 160 171 277 266
476 366 632 317z m4767 -248 c-19 -29 -33 -40 -51 -40 -24 0 -25 1 -12 25 11
22 75 66 86 58 2 -1 -8 -21 -23 -43z m-5366 -13 c0 -2 -15 -16 -32 -33 l-33
-29 29 33 c28 30 36 37 36 29z m1182 -53 l38 -7 -39 -28 c-94 -68 -169 -164
-253 -324 -32 -60 -58 -106 -58 -102 0 4 9 26 20 48 12 22 25 52 30 67 l10 27
-18 -23 c-32 -42 -54 -67 -47 -54 7 13 -22 17 -41 4 -13 -8 -39 -56 -70 -132
-13 -30 -23 -50 -24 -43 0 14 56 147 100 233 67 132 170 261 249 312 49 31 49
31 103 22z m822 -71 c-46 -90 -63 -177 -72 -358 -7 -142 -7 -146 -13 -70 -4
65 -6 51 -7 -71 -2 -141 -3 -152 -21 -157 -13 -3 -22 1 -25 12 -8 25 3 -119
14 -185 6 -33 9 -66 9 -74 -1 -21 -26 95 -34 156 -3 29 -8 62 -11 75 -12 57
-16 349 -5 427 21 163 76 273 142 287 16 4 31 11 34 16 4 5 10 9 15 9 4 0 -7
-30 -26 -67z m-2074 54 c0 -2 -10 -12 -22 -23 l-23 -19 19 23 c18 21 26 27 26
19z m-180 -60 c0 -2 -15 -16 -32 -33 l-33 -29 29 33 c28 30 36 37 36 29z m-60
-70 c0 -2 -12 -14 -27 -28 l-28 -24 24 28 c23 25 31 32 31 24z m-131 -169
c-44 -61 -87 -124 -94 -139 -14 -25 -13 -28 10 -43 22 -14 24 -20 14 -38 -7
-13 -8 -23 -1 -27 6 -3 -7 -33 -30 -71 -65 -106 -134 -247 -209 -429 l-10 -24
-24 23 c-14 13 -25 19 -25 14 0 -5 -5 -1 -11 8 -7 13 0 42 27 115 77 206 213
442 382 666 73 96 55 64 -29 -55z m1302 -185 c-12 -20 -14 -14 -5 12 4 9 9 14
11 11 3 -2 0 -13 -6 -23z m-1337 -28 c-9 -14 -19 -23 -22 -20 -5 4 26 45 35
45 2 0 -4 -11 -13 -25z m2413 -132 c-2 -16 -4 -3 -4 27 0 30 2 43 4 28 2 -16
2 -40 0 -55z m-1227 20 c-11 -17 -11 -17 -6 0 3 10 6 24 7 30 0 9 2 9 5 0 3
-7 0 -20 -6 -30z m1237 -95 c-3 -8 -6 -5 -6 6 -1 11 2 17 5 13 3 -3 4 -12 1
-19z m1498 -48 c4 -6 14 -9 23 -8 10 2 16 -3 14 -10 -1 -8 1 -11 5 -9 5 3 17
-1 28 -9 12 -9 14 -14 5 -14 -11 0 -11 -2 -1 -12 6 -7 16 -13 21 -13 9 0 106
-87 240 -215 66 -62 75 -75 43 -55 -38 25 -45 26 -76 14 -31 -11 -39 -10 -63
6 -52 34 -294 278 -294 296 0 27 42 49 55 29z m-2798 -82 c-3 -8 -6 -5 -6 6
-1 11 2 17 5 13 3 -3 4 -12 1 -19z m-20 -100 c-3 -7 -5 -2 -5 12 0 14 2 19 5
13 2 -7 2 -19 0 -25z m1317 -50 c16 -2 25 -7 22 -15 -3 -7 1 -25 9 -40 8 -15
15 -35 15 -43 0 -20 96 -300 106 -308 4 -4 4 1 1 11 -10 26 -19 76 -11 57 4
-8 29 -71 56 -139 56 -141 138 -306 199 -399 23 -35 40 -65 38 -67 -2 -2 -31
32 -64 75 -52 70 -62 79 -85 73 -14 -3 -29 -6 -34 -7 -11 -1 -86 135 -127 234
-46 108 -96 248 -119 338 -12 42 -23 84 -25 92 -18 64 -25 105 -21 117 3 7 1
13 -4 13 -6 0 -10 7 -10 16 0 13 3 14 14 5 7 -6 25 -12 40 -13z m-1310 -18 c7
0 19 -11 26 -25 11 -20 11 -40 2 -107 -13 -92 -15 -161 -4 -120 4 13 7 -103 7
-256 0 -199 -3 -270 -10 -249 -5 17 -18 34 -27 39 -10 4 -26 12 -35 17 -11 5
-21 26 -26 52 -8 45 -3 395 7 459 3 19 10 67 16 105 6 39 15 71 20 73 5 2 8 9
6 15 -1 7 -1 9 1 5 3 -5 10 -8 17 -8z m1430 -245 c5 -22 4 -26 -4 -15 -5 8
-10 24 -10 34 0 26 6 18 14 -19z m2176 -30 c0 -12 -90 -55 -116 -55 -86 1 -50
47 41 53 33 2 63 4 68 5 4 1 7 0 7 -3z m-1605 -713 c3 -26 7 -81 9 -122 7
-154 73 -427 148 -614 40 -101 54 -145 40 -132 -4 4 -7 12 -7 16 0 5 -7 15
-16 22 -14 11 -109 225 -109 245 0 4 -13 50 -29 103 -17 52 -32 109 -34 125
-8 53 -28 160 -33 176 -3 11 -20 18 -50 22 -44 5 -134 51 -141 73 -2 6 10 14
26 17 21 5 43 -2 83 -23 29 -16 56 -30 60 -30 4 0 6 38 5 85 -2 50 2 86 8 88
22 8 34 -7 40 -51z m-1867 -102 c30 -33 70 -69 90 -80 l37 -19 -35 5 c-87 14
-121 35 -164 99 -32 46 -32 55 -3 55 15 0 40 -20 75 -60z"/>
<path d="M8775 9999 c-4 -6 1 -16 11 -24 23 -16 28 -13 19 14 -7 23 -20 27
-30 10z"/>
<path d="M8780 9957 c0 -7 7 -22 15 -33 8 -10 15 -27 15 -36 0 -10 5 -18 11
-18 5 0 7 -4 4 -10 -3 -5 -1 -10 4 -10 15 0 14 2 -15 65 -27 56 -34 65 -34 42z"/>
<path d="M13355 9705 c-66 -31 -54 -31 21 0 32 13 52 24 44 24 -8 0 -37 -11
-65 -24z"/>
<path d="M13275 9670 c-3 -5 -2 -10 4 -10 5 0 13 5 16 10 3 6 2 10 -4 10 -5 0
-13 -4 -16 -10z"/>
<path d="M7624 9250 c16 -19 73 -81 127 -138 64 -66 96 -107 93 -117 -6 -14
-18 -19 -37 -16 -16 3 27 -44 81 -89 99 -82 116 -95 107 -80 -6 11 -3 10 12
-2 24 -22 34 -23 27 -3 -8 19 10 20 28 2 7 -8 19 -12 25 -10 7 3 23 -6 35 -18
13 -12 17 -19 11 -15 -7 4 -13 5 -13 2 0 -3 17 -13 38 -22 20 -10 73 -42 117
-72 100 -69 89 -57 -45 49 -158 124 -353 295 -502 437 -73 70 -120 111 -104
92z"/>
<path d="M8025 8770 c3 -5 8 -10 11 -10 2 0 4 5 4 10 0 6 -5 10 -11 10 -5 0
-7 -4 -4 -10z"/>
<path d="M13310 7930 c0 -5 7 -7 15 -4 8 4 15 8 15 10 0 2 -7 4 -15 4 -8 0
-15 -4 -15 -10z"/>
<path d="M13700 7904 c0 -13 -8 -15 -49 -9 -49 7 -91 -5 -91 -25 0 -6 14 -10
31 -10 40 0 30 -15 -12 -18 -18 -1 -35 -5 -38 -8 -9 -9 21 -22 40 -17 10 3 19
0 19 -6 0 -6 5 -11 10 -11 6 0 9 5 8 12 -2 6 11 19 28 27 37 19 94 63 94 74 0
4 -9 7 -20 7 -12 0 -20 -7 -20 -16z"/>
<path d="M13220 7900 l-25 -8 28 -1 c15 -1 27 4 27 9 0 6 -1 10 -2 9 -2 -1
-14 -5 -28 -9z"/>
<path d="M13270 7869 c0 -5 5 -7 10 -4 6 3 10 8 10 11 0 2 -4 4 -10 4 -5 0
-10 -5 -10 -11z"/>
<path d="M13528 7863 c7 -3 16 -2 19 1 4 3 -2 6 -13 5 -11 0 -14 -3 -6 -6z"/>
<path d="M13018 7633 c7 -3 16 -2 19 1 4 3 -2 6 -13 5 -11 0 -14 -3 -6 -6z"/>
<path d="M10215 7709 c-3 -8 42 -140 100 -293 58 -153 105 -280 105 -282 0 -2
5 -4 10 -4 6 0 10 10 10 22 0 24 -196 547 -211 562 -5 6 -11 3 -14 -5z"/>
<path d="M10746 7669 c-7 -24 -24 -99 -56 -256 -17 -84 -47 -198 -66 -255 -18
-56 -34 -104 -34 -105 0 -2 16 8 35 23 19 14 35 35 35 46 0 15 3 17 20 8 25
-13 27 -8 84 157 24 70 62 176 85 234 22 58 41 110 41 116 0 6 -9 13 -20 16
-14 4 -20 0 -21 -11 0 -14 -2 -13 -8 2 -4 11 -14 20 -22 22 -8 1 -26 5 -41 9
-20 5 -29 3 -32 -6z m85 -80 c-5 -13 -10 -19 -10 -12 -1 15 10 45 15 40 3 -2
0 -15 -5 -28z m-20 -56 c-12 -20 -14 -14 -5 12 4 9 9 14 11 11 3 -2 0 -13 -6
-23z"/>
<path d="M11122 7300 c4 -27 -338 -363 -404 -396 -27 -13 -48 -29 -48 -34 0
-6 3 -10 6 -10 3 0 122 59 264 130 194 97 269 130 297 130 37 0 37 15 -1 22
-14 2 -29 27 -54 91 -21 55 -39 87 -48 87 -10 0 -14 -8 -12 -20z"/>
<path d="M10736 6871 c-3 -5 5 -11 19 -13 20 -4 23 -3 14 8 -13 16 -25 18 -33
5z"/>
<path d="M10760 6823 c0 -3 7 -11 15 -17 13 -10 13 -18 -1 -74 -15 -58 -15
-65 0 -81 9 -10 16 -23 16 -29 0 -7 5 -12 10 -12 6 0 19 -8 30 -18 10 -9 80
-44 155 -77 75 -33 139 -63 141 -67 10 -17 25 -7 36 23 6 16 12 28 14 26 3 -2
0 -16 -6 -31 -9 -24 -8 -27 7 -24 19 3 98 172 88 188 -3 4 -22 11 -42 15 -21
4 -112 38 -203 77 -219 93 -260 109 -260 101z m449 -252 c-6 -18 -13 -30 -15
-28 -2 2 1 18 7 36 6 18 13 30 15 28 2 -2 -1 -18 -7 -36z"/>
<path d="M10590 6678 c0 -2 9 -32 20 -67 l21 -65 -46 -42 c-25 -24 -45 -45
-45 -47 0 -4 96 -226 141 -326 l33 -74 -28 -23 c-15 -13 -23 -24 -18 -24 17 0
167 69 170 79 2 5 -40 125 -92 266 -93 247 -106 286 -87 256 6 -10 13 -11 27
-3 17 9 16 11 -11 23 -17 7 -42 21 -57 32 -16 10 -28 17 -28 15z"/>
<path d="M10195 6636 c-33 -18 -133 -70 -223 -116 -89 -46 -161 -85 -159 -87
6 -6 434 204 442 216 13 23 0 20 -60 -13z"/>
<path d="M10030 6519 c-91 -44 -167 -84 -170 -87 -3 -4 -11 -8 -19 -10 -23 -5
-87 -41 -73 -42 7 0 20 4 30 10 9 5 49 22 87 38 97 41 324 152 331 163 12 20
-28 4 -186 -72z"/>
<path d="M10397 6520 c-57 -153 -90 -230 -99 -230 -5 0 -6 -4 -3 -10 4 -6 -5
-7 -24 -4 -28 6 -30 4 -41 -36 -6 -24 -20 -85 -29 -136 -17 -89 -17 -93 1
-108 10 -9 22 -16 27 -16 8 0 40 81 138 353 20 54 37 96 40 94 2 -2 -33 -102
-77 -222 -44 -120 -80 -220 -80 -223 0 -2 7 -2 16 0 29 6 204 468 190 504 -7
19 -8 19 -23 -1 l-16 -20 8 20 c13 37 17 92 7 99 -5 3 -21 -25 -35 -64z"/>
<path d="M10850 6090 c0 -5 10 -10 23 -10 18 0 19 2 7 10 -19 13 -30 13 -30 0z"/>
<path d="M13365 6060 c-3 -6 1 -7 9 -4 18 7 21 14 7 14 -6 0 -13 -4 -16 -10z"/>
<path d="M8370 5530 c-18 -12 -2 -12 25 0 13 6 15 9 5 9 -8 0 -22 -4 -30 -9z"/>
</g>
</svg>
